<svg width="53" height="53" viewBox="0 0 53 53" fill="none" xmlns="http://www.w3.org/2000/svg">
<circle cx="26.1658" cy="26.713" r="26.1658" fill="#EAEAEA"/>
<path d="M25.7503 27.6789C27.7892 27.6789 29.4421 26.0261 29.4421 23.9872C29.4421 21.9483 27.7892 20.2954 25.7503 20.2954C23.7114 20.2954 22.0586 21.9483 22.0586 23.9872C22.0586 26.0261 23.7114 27.6789 25.7503 27.6789Z" stroke="#181818" stroke-width="2" stroke-linecap="round" stroke-linejoin="round"/>
<path d="M34.9783 23.9872C34.9783 32.2936 25.7489 38.7542 25.7489 38.7542C25.7489 38.7542 16.5195 32.2936 16.5195 23.9872C16.5195 21.5394 17.4919 19.1919 19.2228 17.461C20.9536 15.7302 23.3011 14.7578 25.7489 14.7578C28.1967 14.7578 30.5442 15.7302 32.2751 17.461C34.0059 19.1919 34.9783 21.5394 34.9783 23.9872V23.9872Z" stroke="#181818" stroke-width="2" stroke-linecap="round" stroke-linejoin="round"/>
</svg>
