<svg width="53" height="54" viewBox="0 0 53 54" fill="none" xmlns="http://www.w3.org/2000/svg">
<circle cx="26.1658" cy="27.1065" r="26.1658" fill="#FFECBB"/>
<path d="M22.6124 26.1296C23.6502 28.2727 25.3831 30.0012 27.5288 31.0334C27.6871 31.1084 27.8621 31.1408 28.0368 31.1275C28.2114 31.1143 28.3795 31.0558 28.5247 30.9578L31.6762 28.8526C31.8155 28.7581 31.9764 28.7005 32.1439 28.6851C32.3114 28.6696 32.4802 28.6969 32.6343 28.7643L38.534 31.2982C38.7356 31.3821 38.9041 31.53 39.0134 31.719C39.1228 31.9081 39.1669 32.1279 39.1391 32.3445C38.9521 33.8039 38.2397 35.1453 37.1353 36.1175C36.0308 37.0897 34.61 37.6261 33.1386 37.6265C28.5916 37.6265 24.2308 35.8202 21.0156 32.605C17.8004 29.3898 15.9941 25.029 15.9941 20.4821C15.9945 19.0107 16.5309 17.5898 17.5031 16.4853C18.4753 15.3809 19.8167 14.6685 21.2761 14.4815C21.4928 14.4537 21.7125 14.4978 21.9016 14.6072C22.0906 14.7165 22.2385 14.885 22.3224 15.0866L24.8563 20.9989C24.9222 21.1506 24.9497 21.3162 24.9366 21.4811C24.9234 21.646 24.8698 21.8051 24.7807 21.9444L22.6754 25.1463C22.5817 25.2912 22.5267 25.4576 22.5156 25.6298C22.5046 25.8019 22.5379 25.974 22.6124 26.1296V26.1296Z" stroke="#DEAA27" stroke-width="2" stroke-linecap="round" stroke-linejoin="round"/>
</svg>
