<svg width="42" height="42" viewBox="0 0 42 42" fill="none" xmlns="http://www.w3.org/2000/svg">
<path d="M21 3.5C17.287 3.5 13.726 4.975 11.1005 7.60051C8.475 10.226 7 13.787 7 17.5C7 26.95 19.3375 37.625 19.8625 38.08C20.1795 38.3511 20.5829 38.5001 21 38.5001C21.4171 38.5001 21.8205 38.3511 22.1375 38.08C22.75 37.625 35 26.95 35 17.5C35 13.787 33.525 10.226 30.8995 7.60051C28.274 4.975 24.713 3.5 21 3.5ZM21 34.3875C17.2725 30.8875 10.5 23.345 10.5 17.5C10.5 14.7152 11.6062 12.0445 13.5754 10.0754C15.5445 8.10625 18.2152 7 21 7C23.7848 7 26.4555 8.10625 28.4246 10.0754C30.3938 12.0445 31.5 14.7152 31.5 17.5C31.5 23.345 24.7275 30.905 21 34.3875ZM21 10.5C19.6155 10.5 18.2622 10.9105 17.111 11.6797C15.9599 12.4489 15.0627 13.5421 14.5328 14.8212C14.003 16.1003 13.8644 17.5078 14.1345 18.8656C14.4046 20.2235 15.0713 21.4708 16.0503 22.4497C17.0292 23.4287 18.2765 24.0954 19.6344 24.3655C20.9922 24.6356 22.3997 24.497 23.6788 23.9672C24.9579 23.4373 26.0511 22.5401 26.8203 21.389C27.5895 20.2378 28 18.8845 28 17.5C28 15.6435 27.2625 13.863 25.9497 12.5503C24.637 11.2375 22.8565 10.5 21 10.5ZM21 21C20.3078 21 19.6311 20.7947 19.0555 20.4101C18.4799 20.0256 18.0313 19.4789 17.7664 18.8394C17.5015 18.1999 17.4322 17.4961 17.5672 16.8172C17.7023 16.1383 18.0356 15.5146 18.5251 15.0251C19.0146 14.5356 19.6382 14.2023 20.3172 14.0673C20.9961 13.9322 21.6998 14.0015 22.3394 14.2664C22.9789 14.5313 23.5256 14.9799 23.9101 15.5555C24.2947 16.1311 24.5 16.8078 24.5 17.5C24.5 18.4283 24.1312 19.3185 23.4749 19.9749C22.8185 20.6313 21.9283 21 21 21Z" fill="white"/>
</svg>
